# xmcd
#
# Track frame offsets:
#	150
#	18211
#	33467
#	46374
#	62382
#	74983
#	87294
#	106596
#	124452
#	142502
#	157131
#	170410
#	187956
#	204552
#	228352
#	241196
#	259598
#	274591
#	288448
#	299621
#	319489
#
# Disc length: 4520 seconds
#
# Revision: 0
# Processed by: cddbd v1.5.2PL0 Copyright (c) Steve Scherf et al.
# Submitted via: dBpowerAMP V4.0
#
DISCID=3211a615
DTITLE=country - country
DYEAR=1900
DGENRE=Country
TTITLE0=c
TTITLE1=a
TTITLE2=d
TTITLE3=f
TTITLE4=h
TTITLE5=i
TTITLE6=t
TTITLE7=1
TTITLE8=2
TTITLE9=3
TTITLE10=4
TTITLE11=5
TTITLE12=6
TTITLE13=7
TTITLE14=8
TTITLE15=9
TTITLE16=0
TTITLE17=a
TTITLE18=s
TTITLE19=d
TTITLE20=f
EXTD=country
EXTT0=
EXTT1=
EXTT2=
EXTT3=
EXTT4=
EXTT5=
EXTT6=
EXTT7=
EXTT8=
EXTT9=
EXTT10=
EXTT11=
EXTT12=
EXTT13=
EXTT14=
EXTT15=
EXTT16=
EXTT17=
EXTT18=
EXTT19=
EXTT20=
PLAYORDER=
